<?xml version="1.0" encoding="UTF-8"?>
<svg xmlns="http://www.w3.org/2000/svg">
   <g transform="translate(5,15)">
      <text x="0" y="0">O</text>
      <text x="15" y="0">R</text>
      <text x="30" y="0">C</text>
      <text x="45" y="0">I</text>
      <text x="60" y="0">P</text>
      <text x="75" y="0">N</text>
      <text x="90" y="0">U</text>
      <rect x="0" y="20" fill="pink" height="8" width="8"/>
      <rect x="0" y="30" fill="pink" height="8" width="8"/>
      <rect x="0" y="40" fill="pink" height="8" width="8"/>
      <rect x="0" y="50" fill="pink" height="8" width="8"/>
      <rect x="0" y="60" fill="pink" height="8" width="8"/>
      <rect x="0" y="70" fill="pink" height="8" width="8"/>
      <rect x="0" y="80" fill="pink" height="8" width="8"/>
      <rect x="0" y="90" fill="pink" height="8" width="8"/>
      <rect x="0" y="100" fill="pink" height="8" width="8"/>
      <rect x="0" y="110" fill="pink" height="8" width="8"/>
      <rect x="15" y="20" fill="green" height="8" width="8"/>
      <rect x="30" y="20" fill="gold" height="8" width="8"/>
      <rect x="30" y="30" fill="gold" height="8" width="8"/>
      <rect x="30" y="40" fill="gold" height="8" width="8"/>
      <rect x="30" y="50" fill="gold" height="8" width="8"/>
      <rect x="30" y="60" fill="gold" height="8" width="8"/>
      <rect x="30" y="70" fill="gold" height="8" width="8"/>
      <rect x="30" y="80" fill="gold" height="8" width="8"/>
      <rect x="30" y="90" fill="gold" height="8" width="8"/>
      <rect x="30" y="100" fill="gold" height="8" width="8"/>
      <rect x="30" y="110" fill="gold" height="8" width="8"/>
      <rect x="30" y="120" fill="gold" height="8" width="8"/>
      <rect x="30" y="130" fill="gold" height="8" width="8"/>
      <rect x="30" y="140" fill="gold" height="8" width="8"/>
      <rect x="30" y="150" fill="gold" height="8" width="8"/>
      <rect x="30" y="160" fill="gold" height="8" width="8"/>
      <rect x="30" y="170" fill="gold" height="8" width="8"/>
      <rect x="30" y="180" fill="gold" height="8" width="8"/>
      <rect x="30" y="190" fill="gold" height="8" width="8"/>
      <rect x="30" y="200" fill="gold" height="8" width="8"/>
      <rect x="75" y="20" fill="navy" height="8" width="8"/>
      <rect x="75" y="30" fill="navy" height="8" width="8"/>
      <text x="120" y="0">O = onomotopoeia</text>
      <text x="120" y="15">R = rhyme</text>
      <text x="120" y="30">C = cultural reference</text>
      <text x="120" y="45">I = incorrect usage</text>
      <text x="120" y="60">P = play on words</text>
      <text x="120" y="75">N = nonsense</text>
      <text x="120" y="90">U = uncommon usage</text>
   </g>
</svg>
