<?xml version="1.0" encoding="UTF-8"?>
<svg xmlns="http://www.w3.org/2000/svg">
   <g transform="translate(65,350)">
      <line x1="10"
            y1="0"
            x2="812.5"
            y2="0"
            stroke="black"
            stroke-width="2"/>
      <text x="406.25" y="75" text-anchor="middle" font-size="20px">Devices</text>
      <line x1="10"
            y1="0"
            x2="10"
            y2="-300"
            stroke="black"
            stroke-width="2"/>
      <text x="15"
            y="-150"
            text-anchor="middle"
            transform="rotate(270 0,-125)"
            font-size="20px">Devices Count</text>
      <line x1="10"
            y1="-20"
            x2="812.5"
            y2="-20"
            stroke="lightgray"
            stroke-width="1"/>
      <text x="-5" y="-20" text-anchor="middle">1</text>
      <line x1="10"
            y1="-40"
            x2="812.5"
            y2="-40"
            stroke="lightgray"
            stroke-width="1"/>
      <text x="-5" y="-40" text-anchor="middle">4</text>
      <line x1="10"
            y1="-60"
            x2="812.5"
            y2="-60"
            stroke="lightgray"
            stroke-width="1"/>
      <text x="-5" y="-60" text-anchor="middle">9</text>
      <line x1="10"
            y1="-80"
            x2="812.5"
            y2="-80"
            stroke="lightgray"
            stroke-width="1"/>
      <text x="-5" y="-80" text-anchor="middle">16</text>
      <line x1="10"
            y1="-100"
            x2="812.5"
            y2="-100"
            stroke="lightgray"
            stroke-width="1"/>
      <text x="-5" y="-100" text-anchor="middle">25</text>
      <line x1="10"
            y1="-120"
            x2="812.5"
            y2="-120"
            stroke="lightgray"
            stroke-width="1"/>
      <text x="-5" y="-120" text-anchor="middle">36</text>
      <line x1="10"
            y1="-140"
            x2="812.5"
            y2="-140"
            stroke="lightgray"
            stroke-width="1"/>
      <text x="-5" y="-140" text-anchor="middle">49</text>
      <line x1="10"
            y1="-160"
            x2="812.5"
            y2="-160"
            stroke="lightgray"
            stroke-width="1"/>
      <text x="-5" y="-160" text-anchor="middle">64</text>
      <line x1="10"
            y1="-180"
            x2="812.5"
            y2="-180"
            stroke="lightgray"
            stroke-width="1"/>
      <text x="-5" y="-180" text-anchor="middle">81</text>
      <line x1="10"
            y1="-200"
            x2="812.5"
            y2="-200"
            stroke="lightgray"
            stroke-width="1"/>
      <text x="-5" y="-200" text-anchor="middle">100</text>
      <line x1="10"
            y1="-220"
            x2="812.5"
            y2="-220"
            stroke="lightgray"
            stroke-width="1"/>
      <text x="-5" y="-220" text-anchor="middle">121</text>
      <line x1="10"
            y1="-240"
            x2="812.5"
            y2="-240"
            stroke="lightgray"
            stroke-width="1"/>
      <text x="-5" y="-240" text-anchor="middle">144</text>
      <line x1="10"
            y1="-260"
            x2="812.5"
            y2="-260"
            stroke="lightgray"
            stroke-width="1"/>
      <text x="-5" y="-260" text-anchor="middle">169</text>
      <line x1="10"
            y1="-280"
            x2="812.5"
            y2="-280"
            stroke="lightgray"
            stroke-width="1"/>
      <text x="-5" y="-280" text-anchor="middle">196</text>
      <text x="406.25" y="-315" text-anchor="middle" font-size="25px">Number of Devices Used in the English and Japanese Texts</text>
      <rect x="260.8333333333333333333"
            y="35"
            width="20"
            height="20"
            fill="purple"/>
      <text x="285.8333333333333333333" y="50">English</text>
      <rect x="531.6666666666666666666"
            y="35"
            width="20"
            height="20"
            fill="green"/>
      <text x="556.6666666666666666666" y="50">Japanese</text>
      <rect x="25" y="-60" width="50" height="60" fill="purple"/>
      <text x="50" y="-65" text-anchor="middle">9</text>
      <rect x="156.25"
            y="-138.56406460551017"
            width="50"
            height="138.56406460551017"
            fill="purple"/>
      <text x="181.25" y="-143.56406460551017" text-anchor="middle">48</text>
      <rect x="287.5"
            y="-28.284271247461902"
            width="50"
            height="28.284271247461902"
            fill="purple"/>
      <text x="312.5" y="-33.2842712474619" text-anchor="middle">2</text>
      <rect x="418.75"
            y="-167.33200530681512"
            width="50"
            height="167.33200530681512"
            fill="purple"/>
      <text x="443.75" y="-172.33200530681512" text-anchor="middle">70</text>
      <rect x="550" y="-60" width="50" height="60" fill="purple"/>
      <text x="575" y="-65" text-anchor="middle">9</text>
      <rect x="681.25"
            y="-66.33249580710799"
            width="50"
            height="66.33249580710799"
            fill="purple"/>
      <text x="706.25" y="-71.33249580710799" text-anchor="middle">11</text>
      <rect x="81.25"
            y="-63.24555320336759"
            width="50"
            height="63.24555320336759"
            fill="green"/>
      <text x="106.25" y="-68.24555320336759" text-anchor="middle">10</text>
      <rect x="212.5"
            y="-134.1640786499874"
            width="50"
            height="134.1640786499874"
            fill="green"/>
      <text x="237.5" y="-139.1640786499874" text-anchor="middle">45</text>
      <rect x="343.75"
            y="-28.284271247461902"
            width="50"
            height="28.284271247461902"
            fill="green"/>
      <text x="368.75" y="-33.2842712474619" text-anchor="middle">2</text>
      <rect x="475" y="-20" width="50" height="20" fill="green"/>
      <text x="500" y="-25" text-anchor="middle">1</text>
      <rect x="606.25"
            y="-34.64101615137754"
            width="50"
            height="34.64101615137754"
            fill="green"/>
      <text x="631.25" y="-39.64101615137754" text-anchor="middle">3</text>
      <rect x="737.5"
            y="-284.2534080710379"
            width="50"
            height="284.2534080710379"
            fill="green"/>
      <text x="762.5" y="-289.2534080710379" text-anchor="middle">202</text>
      <text x="75" y="15" text-anchor="middle">Nonsense</text>
      <text x="206.25" y="15" text-anchor="middle">Play on Words</text>
      <text x="337.5" y="15" text-anchor="middle">Incorrect Usage</text>
      <text x="468.75" y="15" text-anchor="middle">Rhyme Phrase</text>
      <text x="600" y="15" text-anchor="middle">Repetition</text>
      <text x="731.25" y="15" text-anchor="middle">Onomatopoeia</text>
   </g>
</svg>
